<svg xmlns="http://www.w3.org/2000/svg" viewBox="0 0 250 179.73"><title>Gears</title><g id="Layer_2" data-name="Layer 2"><g id="Layer_1-2" data-name="Layer 1"><path class="smallGear" d="M99,123.84l-8.11-1.16A2.2,2.2,0,0,1,89,121a39,39,0,0,0-5.52-13.33,2.17,2.17,0,0,1,.1-2.49l4.92-6.56a2.73,2.73,0,0,0-.25-3.56l-3.6-3.59a2.7,2.7,0,0,0-3.55-.25L73.3,97.07A39,39,0,0,0,58.73,90.7a2.16,2.16,0,0,1-1.68-1.83l-1.16-8.11a2.72,2.72,0,0,0-2.69-2.34H48.11a2.72,2.72,0,0,0-2.69,2.34l-1.16,8.11a2.17,2.17,0,0,1-1.69,1.83,38.79,38.79,0,0,0-13.33,5.53,2.19,2.19,0,0,1-2.49-.11l-6.56-4.91a2.71,2.71,0,0,0-3.56.25L13,95.05a2.71,2.71,0,0,0-.25,3.56l4.92,6.56a2.18,2.18,0,0,1,.1,2.49A39.19,39.19,0,0,0,12.28,121a2.17,2.17,0,0,1-1.83,1.69l-8.11,1.16A2.72,2.72,0,0,0,0,126.53v5.08a2.73,2.73,0,0,0,2.34,2.7l8.11,1.16a2.16,2.16,0,0,1,1.83,1.68,38.91,38.91,0,0,0,5.53,13.33,2.2,2.2,0,0,1-.1,2.5l-4.92,6.56a2.7,2.7,0,0,0,.25,3.55l3.59,3.6a2.74,2.74,0,0,0,3.56.25L26.75,162a2.17,2.17,0,0,1,2.49-.1,39,39,0,0,0,13.33,5.52,2.2,2.2,0,0,1,1.69,1.84l1.16,8.11a2.72,2.72,0,0,0,2.69,2.34h5.08a2.73,2.73,0,0,0,2.7-2.34l1.16-8.11a2.18,2.18,0,0,1,1.68-1.84,38.89,38.89,0,0,0,13.33-5.52,2.18,2.18,0,0,1,2.5.1l6.56,4.92a2.72,2.72,0,0,0,3.55-.25l3.6-3.6a2.71,2.71,0,0,0,.25-3.55L83.6,153a2.18,2.18,0,0,1-.1-2.5A38.89,38.89,0,0,0,89,137.15a2.18,2.18,0,0,1,1.84-1.68L99,134.31a2.73,2.73,0,0,0,2.34-2.7v-5.08A2.72,2.72,0,0,0,99,123.84ZM52.25,153.53a24.51,24.51,0,1,1,22.86-22.87A24.52,24.52,0,0,1,52.25,153.53Z"/><path class="bigGear" d="M121.68,11.73l3.9,12.6a3.5,3.5,0,0,1-1.19,3.83A62.84,62.84,0,0,0,108.8,45.38,3.52,3.52,0,0,1,105.1,47L92.17,44.31a4.39,4.39,0,0,0-5,2.82l-2.75,7.71a4.37,4.37,0,0,0,2.08,5.35l13.91,7.33a62.81,62.81,0,0,0,.78,25.58,3.5,3.5,0,0,1-1.51,3.71l-11,7.28a4.39,4.39,0,0,0-1.55,5.53L90.64,117a4.37,4.37,0,0,0,5.25,2.31l12.6-3.9a3.5,3.5,0,0,1,3.83,1.19,62.84,62.84,0,0,0,17.22,15.59,3.51,3.51,0,0,1,1.57,3.7l-2.64,12.93a4.39,4.39,0,0,0,2.82,5l7.71,2.75a4.37,4.37,0,0,0,5.35-2.08l6.15-11.68a3.51,3.51,0,0,1,3.56-1.86,62.76,62.76,0,0,0,23.2-1.15,3.52,3.52,0,0,1,3.72,1.51l7.27,11a4.39,4.39,0,0,0,5.53,1.55l7.39-3.51a4.36,4.36,0,0,0,2.31-5.25l-3.9-12.6a3.5,3.5,0,0,1,1.19-3.83,62.84,62.84,0,0,0,15.59-17.22,3.51,3.51,0,0,1,3.7-1.57L233,112.53a4.39,4.39,0,0,0,5-2.82l2.75-7.71a4.37,4.37,0,0,0-2.08-5.35L227,90.5a3.51,3.51,0,0,1-1.87-3.56A62.55,62.55,0,0,0,224,63.74,3.52,3.52,0,0,1,225.48,60l11-7.27A4.39,4.39,0,0,0,238,47.22l-3.5-7.39a4.38,4.38,0,0,0-5.26-2.31l-12.6,3.9a3.5,3.5,0,0,1-3.83-1.19,62.84,62.84,0,0,0-17.22-15.59,3.52,3.52,0,0,1-1.57-3.7L196.69,8a4.39,4.39,0,0,0-2.82-5L186.16.26a4.37,4.37,0,0,0-5.35,2.08L174.66,14a3.51,3.51,0,0,1-3.56,1.87A62.55,62.55,0,0,0,147.9,17a3.5,3.5,0,0,1-3.71-1.51l-7.28-11A4.39,4.39,0,0,0,131.38,3L124,6.47A4.39,4.39,0,0,0,121.68,11.73Zm75.39,47.52a39.46,39.46,0,1,1-49-17.51A39.46,39.46,0,0,1,197.07,59.25Z"/></g></g></svg>